<svg xmlns="http://www.w3.org/2000/svg" width="64" height="64" fill="none"><path fill="#32435F" d="M31.667 63.333c17.489 0 31.666-14.177 31.666-31.666C63.333 14.177 49.156 0 31.667 0 14.177 0 0 14.178 0 31.667s14.178 31.666 31.667 31.666Z"/><path fill="#8F8681" d="M31.667 57C45.657 57 57 45.658 57 31.667 57 17.675 45.658 6.333 31.667 6.333c-13.992 0-25.334 11.342-25.334 25.334C6.333 45.657 17.675 57 31.667 57Z"/><path fill="#32435F" d="M31.667 53.833c12.242 0 22.166-9.924 22.166-22.166C53.833 19.424 43.91 9.5 31.667 9.5 19.424 9.5 9.5 19.424 9.5 31.667c0 12.242 9.924 22.166 22.167 22.166Z"/><path fill="#8F8681" d="M31.667 52.567c11.542 0 20.9-9.358 20.9-20.9 0-11.543-9.358-20.9-20.9-20.9-11.543 0-20.9 9.357-20.9 20.9 0 11.542 9.357 20.9 20.9 20.9Z"/><path stroke="#32435F" stroke-width="2.972" d="m18.049 15.286 27.235 32.761"/><path stroke="#8F8681" stroke-width="3" d="m49.412 15.267-37.325 32.41"/></svg>